<svg xmlns="http://www.w3.org/2000/svg" xmlns:xlink="http://www.w3.org/1999/xlink" width="500" zoomAndPan="magnify" viewBox="0 0 375 374.999991" height="500" preserveAspectRatio="xMidYMid meet" version="1.0"><defs><g/></defs><rect x="-37.5" width="450" fill="#ffffff" y="-37.499999" height="449.999989" fill-opacity="1"/><rect x="-37.5" width="450" fill="#198754" y="-37.499999" height="449.999989" fill-opacity="1"/><rect x="-37.5" width="450" fill="#ffffff" y="-37.499999" height="449.999989" fill-opacity="1"/><rect x="-37.5" width="450" fill="#198754" y="-37.499999" height="449.999989" fill-opacity="1"/><g fill="#ffffff" fill-opacity="1"><g transform="translate(28.959164, 200.409083)"><g><path d="M 13.746094 0 C 14.695312 0 15.1875 -0.492188 15.1875 -1.441406 L 15.1875 -24.222656 L 34.839844 -0.808594 C 35.332031 -0.210938 35.894531 0 36.597656 0 L 46.441406 0 C 47.636719 0 48.023438 -0.84375 47.214844 -1.757812 L 24.785156 -28.300781 L 46.652344 -52.207031 C 47.496094 -53.121094 47.109375 -54 45.914062 -54 L 36.949219 -54 C 36.210938 -54 35.648438 -53.824219 35.121094 -53.226562 L 15.1875 -31.5 L 15.1875 -52.558594 C 15.1875 -53.507812 14.695312 -54 13.746094 -54 L 6.785156 -54 C 5.835938 -54 5.34375 -53.507812 5.34375 -52.558594 L 5.34375 -1.441406 C 5.34375 -0.492188 5.835938 0 6.785156 0 Z M 13.746094 0 "/></g></g><g transform="translate(78.177911, 200.409083)"><g><path d="M 24.925781 -38.003906 C 20.777344 -38.003906 16.3125 -36.386719 12.585938 -32.730469 L 11.742188 -35.964844 C 11.53125 -36.84375 10.96875 -37.230469 10.160156 -37.230469 L 6.257812 -37.230469 C 5.34375 -37.230469 4.816406 -36.703125 4.816406 -35.789062 L 4.816406 -1.441406 C 4.816406 -0.492188 5.34375 0 6.257812 0 L 12.445312 0 C 13.394531 0 13.886719 -0.492188 13.886719 -1.441406 L 13.886719 -21.480469 C 13.886719 -26.789062 17.578125 -30.023438 22.148438 -30.023438 C 26.824219 -30.023438 29.636719 -26.578125 29.636719 -21.691406 L 29.636719 -1.441406 C 29.636719 -0.492188 30.128906 0 31.078125 0 L 37.265625 0 C 38.179688 0 38.707031 -0.492188 38.707031 -1.441406 L 38.707031 -22.992188 C 38.707031 -30.304688 35.085938 -38.003906 24.925781 -38.003906 Z M 24.925781 -38.003906 "/></g></g><g transform="translate(121.314627, 200.409083)"><g><path d="M 23.027344 0.808594 C 34.453125 0.808594 43.066406 -7.207031 43.066406 -18.597656 C 43.066406 -30.023438 34.453125 -38.003906 23.027344 -38.003906 C 11.707031 -38.003906 3.09375 -30.023438 3.09375 -18.597656 C 3.09375 -7.207031 11.707031 0.808594 23.027344 0.808594 Z M 23.027344 -7.3125 C 16.734375 -7.3125 12.128906 -12.023438 12.128906 -18.597656 C 12.128906 -25.207031 16.734375 -29.917969 23.027344 -29.917969 C 29.460938 -29.917969 34.03125 -25.207031 34.03125 -18.597656 C 34.03125 -12.023438 29.460938 -7.3125 23.027344 -7.3125 Z M 23.027344 -7.3125 "/></g></g><g transform="translate(167.509936, 200.409083)"><g><path d="M 52.875 -37.230469 C 52.101562 -37.230469 51.539062 -36.949219 51.222656 -36.140625 L 42.257812 -15.117188 L 33.011719 -37.230469 C 32.027344 -39.550781 30.058594 -39.515625 29.109375 -37.230469 L 20.003906 -15.117188 L 10.96875 -36.140625 C 10.652344 -36.949219 10.125 -37.230469 9.316406 -37.230469 L 2.777344 -37.230469 C 1.6875 -37.230469 1.265625 -36.527344 1.722656 -35.542969 L 17.71875 -0.0703125 C 18.667969 2.179688 20.707031 2.214844 21.621094 -0.0703125 L 30.9375 -22.640625 L 31.183594 -22.640625 L 40.429688 -0.0703125 C 41.378906 2.214844 43.382812 2.179688 44.367188 -0.0703125 L 60.539062 -35.542969 C 61.03125 -36.527344 60.574219 -37.230469 59.519531 -37.230469 Z M 52.875 -37.230469 "/></g></g><g transform="translate(229.87712, 200.409083)"><g><path d="M 26.4375 -38.003906 C 21.761719 -38.003906 17.261719 -36.316406 13.921875 -33.257812 L 13.957031 -52.558594 C 13.957031 -53.507812 13.464844 -54 12.515625 -54 L 6.328125 -54 C 5.414062 -54 4.886719 -53.507812 4.886719 -52.558594 L 4.816406 -1.441406 C 4.816406 -0.492188 5.34375 0 6.257812 0 L 10.160156 0 C 10.96875 0 11.53125 -0.386719 11.742188 -1.265625 L 12.796875 -5.203125 C 16.101562 -1.371094 21.058594 0.808594 26.4375 0.808594 C 37.160156 0.808594 45.28125 -7.910156 45.28125 -18.597656 C 45.28125 -29.320312 37.160156 -38.003906 26.4375 -38.003906 Z M 24.925781 -7.3125 C 18.667969 -7.3125 13.605469 -12.375 13.605469 -18.597656 C 13.605469 -24.855469 18.667969 -29.917969 24.925781 -29.917969 C 31.148438 -29.917969 36.210938 -24.855469 36.210938 -18.597656 C 36.210938 -12.375 31.148438 -7.3125 24.925781 -7.3125 Z M 24.925781 -7.3125 "/></g></g><g transform="translate(278.322429, 200.409083)"><g><path d="M 16.242188 0.808594 C 18 0.808594 19.898438 0.703125 21.9375 0 C 22.78125 -0.316406 23.097656 -1.019531 22.816406 -1.863281 L 21.585938 -6.292969 C 21.304688 -7.171875 20.707031 -7.488281 19.757812 -7.207031 C 18.878906 -6.925781 18 -6.820312 17.332031 -6.820312 C 15.046875 -6.820312 13.605469 -8.085938 13.605469 -11.074219 L 13.605469 -52.558594 C 13.605469 -53.507812 13.113281 -54 12.164062 -54 L 5.976562 -54 C 5.027344 -54 4.535156 -53.507812 4.535156 -52.558594 L 4.535156 -10.019531 C 4.535156 -2.988281 9.351562 0.808594 16.242188 0.808594 Z M 16.242188 0.808594 "/></g></g><g transform="translate(302.896646, 200.409083)"><g><path d="M 21.832031 -38.003906 C 11.214844 -38.003906 3.199219 -30.375 3.199219 -18.597656 C 3.199219 -6.679688 11.777344 0.808594 22.21875 0.808594 C 27.878906 0.808594 33.398438 -1.582031 37.546875 -5.941406 C 38.285156 -6.679688 38.285156 -7.382812 37.582031 -7.910156 L 34.136719 -11.707031 C 33.46875 -12.234375 32.941406 -12.199219 32.273438 -11.566406 C 29.496094 -8.71875 25.910156 -7.207031 22.464844 -7.207031 C 17.050781 -7.207031 12.304688 -10.828125 12.058594 -17.332031 L 38.53125 -17.332031 C 39.550781 -17.332031 40.078125 -17.683594 40.078125 -18.949219 C 40.078125 -30.375 32.449219 -38.003906 21.832031 -38.003906 Z M 22.007812 -30.515625 C 25.839844 -30.515625 29.566406 -28.441406 30.65625 -23.695312 L 12.691406 -23.695312 C 14.027344 -28.476562 18.28125 -30.515625 22.007812 -30.515625 Z M 22.007812 -30.515625 "/></g></g></g><g fill="#ffffff" fill-opacity="1"><g transform="translate(32.189601, 233.409081)"><g><path d="M 6.214844 0 C 9.859375 0 10.828125 -1.949219 10.828125 -3.839844 C 10.828125 -5.113281 10.210938 -6.371094 8.683594 -6.917969 C 9.800781 -7.566406 10.371094 -8.675781 10.371094 -9.992188 C 10.371094 -11.960938 9.253906 -13.5 5.984375 -13.5 L 1.695312 -13.5 C 1.457031 -13.5 1.335938 -13.375 1.335938 -13.140625 L 1.335938 -0.359375 C 1.335938 -0.121094 1.457031 0 1.695312 0 Z M 3.804688 -11.3125 L 5.933594 -11.3125 C 7.664062 -11.3125 8.113281 -10.617188 8.113281 -9.640625 C 8.113281 -8.59375 7.671875 -7.875 6.222656 -7.875 L 3.804688 -7.875 Z M 3.804688 -5.914062 L 6.257812 -5.914062 C 7.820312 -5.914062 8.347656 -5.140625 8.347656 -4.09375 C 8.347656 -3.101562 7.988281 -2.1875 6.144531 -2.1875 L 3.804688 -2.1875 Z M 3.804688 -5.914062 "/></g></g></g><g fill="#ffffff" fill-opacity="1"><g transform="translate(51.060631, 233.409081)"><g><path d="M 3.445312 0 C 3.683594 0 3.804688 -0.121094 3.804688 -0.359375 L 3.804688 -13.140625 C 3.804688 -13.375 3.683594 -13.5 3.445312 -13.5 L 1.695312 -13.5 C 1.457031 -13.5 1.335938 -13.375 1.335938 -13.140625 L 1.335938 -0.359375 C 1.335938 -0.121094 1.457031 0 1.695312 0 Z M 3.445312 0 "/></g></g></g><g fill="#ffffff" fill-opacity="1"><g transform="translate(63.366232, 233.409081)"><g><path d="M 5.675781 0 C 5.914062 0 6.039062 -0.121094 6.039062 -0.359375 L 6.039062 -11.3125 L 8.964844 -11.3125 C 9.203125 -11.3125 9.324219 -11.441406 9.324219 -11.671875 L 9.324219 -13.140625 C 9.324219 -13.375 9.203125 -13.5 8.964844 -13.5 L 0.632812 -13.5 C 0.394531 -13.5 0.273438 -13.375 0.273438 -13.140625 L 0.273438 -11.671875 C 0.273438 -11.441406 0.394531 -11.3125 0.632812 -11.3125 L 3.550781 -11.3125 L 3.550781 -0.359375 C 3.550781 -0.121094 3.683594 0 3.910156 0 Z M 5.675781 0 "/></g></g></g><g fill="#ffffff" fill-opacity="1"><g transform="translate(80.136675, 233.409081)"><g><path d="M 8.972656 0 C 9.210938 0 9.332031 -0.121094 9.332031 -0.359375 L 9.332031 -1.828125 C 9.332031 -2.054688 9.210938 -2.1875 8.972656 -2.1875 L 3.804688 -2.1875 L 3.804688 -4.445312 L 8.269531 -4.445312 C 8.507812 -4.445312 8.628906 -4.570312 8.628906 -4.808594 L 8.628906 -6.179688 C 8.628906 -6.414062 8.507812 -6.539062 8.269531 -6.539062 L 3.804688 -6.539062 L 3.804688 -11.3125 L 8.972656 -11.3125 C 9.210938 -11.3125 9.332031 -11.441406 9.332031 -11.671875 L 9.332031 -13.140625 C 9.332031 -13.375 9.210938 -13.5 8.972656 -13.5 L 1.695312 -13.5 C 1.457031 -13.5 1.335938 -13.375 1.335938 -13.140625 L 1.335938 -0.359375 C 1.335938 -0.121094 1.457031 0 1.695312 0 Z M 8.972656 0 "/></g></g></g><g fill="#ffffff" fill-opacity="1"><g transform="translate(97.469621, 233.409081)"><g><path d="M 5.210938 -3.761719 C 5.449219 -3.761719 5.570312 -3.882812 5.570312 -4.121094 L 5.570312 -5.203125 C 5.570312 -5.429688 5.449219 -5.5625 5.210938 -5.5625 L 0.835938 -5.5625 C 0.605469 -5.5625 0.472656 -5.429688 0.472656 -5.203125 L 0.472656 -4.121094 C 0.472656 -3.882812 0.605469 -3.761719 0.835938 -3.761719 Z M 5.210938 -3.761719 "/></g></g></g><g fill="#ffffff" fill-opacity="1"><g transform="translate(110.680497, 233.409081)"><g><path d="M 5.273438 0.316406 C 7.636719 0.316406 9.859375 -0.789062 9.859375 -3.460938 C 9.859375 -5.835938 7.980469 -6.882812 6.285156 -7.769531 C 4.746094 -8.550781 3.445312 -9.148438 3.445312 -10.328125 C 3.445312 -11.285156 4.289062 -11.652344 5.335938 -11.652344 C 6.195312 -11.652344 7.207031 -11.417969 8.148438 -11.019531 C 8.359375 -10.933594 8.523438 -11.011719 8.613281 -11.222656 L 9.078125 -12.621094 C 9.167969 -12.832031 9.105469 -13 8.886719 -13.085938 C 7.671875 -13.542969 6.355469 -13.816406 5.289062 -13.816406 C 3.023438 -13.816406 0.949219 -12.742188 0.949219 -10.152344 C 0.949219 -7.988281 2.496094 -6.960938 4.128906 -6.0625 C 5.792969 -5.167969 7.355469 -4.535156 7.355469 -3.339844 C 7.355469 -2.347656 6.503906 -1.835938 5.210938 -1.835938 C 4.289062 -1.835938 3.128906 -2.054688 1.828125 -2.664062 C 1.609375 -2.757812 1.441406 -2.707031 1.351562 -2.496094 L 0.808594 -1.035156 C 0.71875 -0.816406 0.78125 -0.660156 1.011719 -0.554688 C 2.671875 0.0976562 3.980469 0.316406 5.273438 0.316406 Z M 5.273438 0.316406 "/></g></g></g><g fill="#ffffff" fill-opacity="1"><g transform="translate(128.417734, 233.409081)"><g><path d="M 3.445312 0 C 3.683594 0 3.804688 -0.121094 3.804688 -0.359375 L 3.804688 -13.140625 C 3.804688 -13.375 3.683594 -13.5 3.445312 -13.5 L 1.695312 -13.5 C 1.457031 -13.5 1.335938 -13.375 1.335938 -13.140625 L 1.335938 -0.359375 C 1.335938 -0.121094 1.457031 0 1.695312 0 Z M 3.445312 0 "/></g></g></g><g fill="#ffffff" fill-opacity="1"><g transform="translate(140.723336, 233.409081)"><g><path d="M 4.445312 -2.1875 L 11.082031 -13.070312 C 11.222656 -13.296875 11.125 -13.5 10.835938 -13.5 L 1.316406 -13.5 C 1.082031 -13.5 0.957031 -13.375 0.957031 -13.140625 L 0.957031 -11.671875 C 0.957031 -11.441406 1.082031 -11.3125 1.316406 -11.3125 L 7.117188 -11.3125 L 0.5 -0.429688 C 0.359375 -0.203125 0.457031 0 0.746094 0 L 11.003906 0 C 11.242188 0 11.363281 -0.121094 11.363281 -0.359375 L 11.363281 -1.828125 C 11.363281 -2.054688 11.242188 -2.1875 11.003906 -2.1875 Z M 4.445312 -2.1875 "/></g></g></g><g fill="#ffffff" fill-opacity="1"><g transform="translate(159.75257, 233.409081)"><g><path d="M 8.972656 0 C 9.210938 0 9.332031 -0.121094 9.332031 -0.359375 L 9.332031 -1.828125 C 9.332031 -2.054688 9.210938 -2.1875 8.972656 -2.1875 L 3.804688 -2.1875 L 3.804688 -4.445312 L 8.269531 -4.445312 C 8.507812 -4.445312 8.628906 -4.570312 8.628906 -4.808594 L 8.628906 -6.179688 C 8.628906 -6.414062 8.507812 -6.539062 8.269531 -6.539062 L 3.804688 -6.539062 L 3.804688 -11.3125 L 8.972656 -11.3125 C 9.210938 -11.3125 9.332031 -11.441406 9.332031 -11.671875 L 9.332031 -13.140625 C 9.332031 -13.375 9.210938 -13.5 8.972656 -13.5 L 1.695312 -13.5 C 1.457031 -13.5 1.335938 -13.375 1.335938 -13.140625 L 1.335938 -0.359375 C 1.335938 -0.121094 1.457031 0 1.695312 0 Z M 8.972656 0 "/></g></g></g><g fill="#ffffff" fill-opacity="1"><g transform="translate(177.085516, 233.409081)"><g><path d="M 5.289062 0 C 9.929688 0 12.445312 -2.539062 12.445312 -6.757812 C 12.445312 -11.019531 9.894531 -13.5 5.289062 -13.5 L 1.695312 -13.5 C 1.457031 -13.5 1.335938 -13.375 1.335938 -13.140625 L 1.335938 -0.359375 C 1.335938 -0.121094 1.457031 0 1.695312 0 Z M 3.824219 -11.3125 L 5.28125 -11.3125 C 8.269531 -11.3125 9.976562 -9.710938 9.976562 -6.785156 C 9.976562 -3.859375 8.269531 -2.1875 5.28125 -2.1875 L 3.824219 -2.1875 Z M 3.824219 -11.3125 "/></g></g></g><g fill="#ffffff" fill-opacity="1"><g transform="translate(197.503422, 233.409081)"><g/></g></g><g fill="#ffffff" fill-opacity="1"><g transform="translate(210.063907, 233.409081)"><g><path d="M 3.445312 0 C 3.683594 0 3.804688 -0.121094 3.804688 -0.359375 L 3.804688 -13.140625 C 3.804688 -13.375 3.683594 -13.5 3.445312 -13.5 L 1.695312 -13.5 C 1.457031 -13.5 1.335938 -13.375 1.335938 -13.140625 L 1.335938 -0.359375 C 1.335938 -0.121094 1.457031 0 1.695312 0 Z M 3.445312 0 "/></g></g></g><g fill="#ffffff" fill-opacity="1"><g transform="translate(222.36951, 233.409081)"><g><path d="M 3.402344 0 C 3.636719 0 3.761719 -0.121094 3.761719 -0.359375 L 3.761719 -8.164062 L 11.417969 0 C 11.910156 0.484375 12.347656 0.324219 12.347656 -0.316406 L 12.347656 -13.140625 C 12.347656 -13.375 12.226562 -13.5 11.988281 -13.5 L 10.292969 -13.5 C 10.0625 -13.5 9.929688 -13.375 9.929688 -13.140625 L 9.929688 -5.546875 L 2.230469 -13.542969 C 1.773438 -14 1.351562 -13.832031 1.351562 -13.191406 L 1.351562 -0.359375 C 1.351562 -0.121094 1.476562 0 1.714844 0 Z M 3.402344 0 "/></g></g></g><g fill="#ffffff" fill-opacity="1"><g transform="translate(243.244436, 233.409081)"><g><path d="M 5.273438 0.316406 C 7.636719 0.316406 9.859375 -0.789062 9.859375 -3.460938 C 9.859375 -5.835938 7.980469 -6.882812 6.285156 -7.769531 C 4.746094 -8.550781 3.445312 -9.148438 3.445312 -10.328125 C 3.445312 -11.285156 4.289062 -11.652344 5.335938 -11.652344 C 6.195312 -11.652344 7.207031 -11.417969 8.148438 -11.019531 C 8.359375 -10.933594 8.523438 -11.011719 8.613281 -11.222656 L 9.078125 -12.621094 C 9.167969 -12.832031 9.105469 -13 8.886719 -13.085938 C 7.671875 -13.542969 6.355469 -13.816406 5.289062 -13.816406 C 3.023438 -13.816406 0.949219 -12.742188 0.949219 -10.152344 C 0.949219 -7.988281 2.496094 -6.960938 4.128906 -6.0625 C 5.792969 -5.167969 7.355469 -4.535156 7.355469 -3.339844 C 7.355469 -2.347656 6.503906 -1.835938 5.210938 -1.835938 C 4.289062 -1.835938 3.128906 -2.054688 1.828125 -2.664062 C 1.609375 -2.757812 1.441406 -2.707031 1.351562 -2.496094 L 0.808594 -1.035156 C 0.71875 -0.816406 0.78125 -0.660156 1.011719 -0.554688 C 2.671875 0.0976562 3.980469 0.316406 5.273438 0.316406 Z M 5.273438 0.316406 "/></g></g></g><g fill="#ffffff" fill-opacity="1"><g transform="translate(260.981678, 233.409081)"><g><path d="M 3.445312 0 C 3.683594 0 3.804688 -0.121094 3.804688 -0.359375 L 3.804688 -13.140625 C 3.804688 -13.375 3.683594 -13.5 3.445312 -13.5 L 1.695312 -13.5 C 1.457031 -13.5 1.335938 -13.375 1.335938 -13.140625 L 1.335938 -0.359375 C 1.335938 -0.121094 1.457031 0 1.695312 0 Z M 3.445312 0 "/></g></g></g><g fill="#ffffff" fill-opacity="1"><g transform="translate(273.287281, 233.409081)"><g><path d="M 7.910156 0.316406 C 10.152344 0.316406 12.058594 -0.527344 13.296875 -1.976562 C 13.410156 -2.101562 13.457031 -2.222656 13.457031 -2.390625 L 13.457031 -6.179688 C 13.457031 -6.414062 13.332031 -6.539062 13.09375 -6.539062 L 8.234375 -6.539062 C 7.996094 -6.539062 7.875 -6.414062 7.875 -6.179688 L 7.875 -4.808594 C 7.875 -4.570312 7.996094 -4.445312 8.234375 -4.445312 L 11.171875 -4.445312 L 11.171875 -3.171875 C 10.351562 -2.371094 9.210938 -1.890625 7.910156 -1.890625 C 5.265625 -1.890625 3.25 -3.832031 3.25 -6.75 C 3.25 -9.625 5.253906 -11.523438 7.910156 -11.523438 C 9.253906 -11.523438 10.414062 -11.003906 11.242188 -10.167969 C 11.398438 -10.011719 11.566406 -9.992188 11.742188 -10.132812 L 13.164062 -11.136719 C 13.359375 -11.285156 13.375 -11.460938 13.210938 -11.628906 C 11.945312 -13 10.089844 -13.816406 7.910156 -13.816406 C 3.804688 -13.816406 0.773438 -10.960938 0.773438 -6.75 C 0.773438 -2.53125 3.804688 0.316406 7.910156 0.316406 Z M 7.910156 0.316406 "/></g></g></g><g fill="#ffffff" fill-opacity="1"><g transform="translate(294.830187, 233.409081)"><g><path d="M 3.445312 0 C 3.683594 0 3.804688 -0.121094 3.804688 -0.359375 L 3.804688 -4.402344 L 9.648438 -4.402344 L 9.648438 -0.359375 C 9.648438 -0.121094 9.773438 0 10.011719 0 L 11.757812 0 C 11.996094 0 12.121094 -0.121094 12.121094 -0.359375 L 12.121094 -13.140625 C 12.121094 -13.375 11.996094 -13.5 11.757812 -13.5 L 10.011719 -13.5 C 9.773438 -13.5 9.648438 -13.375 9.648438 -13.140625 L 9.648438 -6.589844 L 3.804688 -6.589844 L 3.804688 -13.140625 C 3.804688 -13.375 3.683594 -13.5 3.445312 -13.5 L 1.695312 -13.5 C 1.457031 -13.5 1.335938 -13.375 1.335938 -13.140625 L 1.335938 -0.359375 C 1.335938 -0.121094 1.457031 0 1.695312 0 Z M 3.445312 0 "/></g></g></g><g fill="#ffffff" fill-opacity="1"><g transform="translate(315.459031, 233.409081)"><g><path d="M 5.675781 0 C 5.914062 0 6.039062 -0.121094 6.039062 -0.359375 L 6.039062 -11.3125 L 8.964844 -11.3125 C 9.203125 -11.3125 9.324219 -11.441406 9.324219 -11.671875 L 9.324219 -13.140625 C 9.324219 -13.375 9.203125 -13.5 8.964844 -13.5 L 0.632812 -13.5 C 0.394531 -13.5 0.273438 -13.375 0.273438 -13.140625 L 0.273438 -11.671875 C 0.273438 -11.441406 0.394531 -11.3125 0.632812 -11.3125 L 3.550781 -11.3125 L 3.550781 -0.359375 C 3.550781 -0.121094 3.683594 0 3.910156 0 Z M 5.675781 0 "/></g></g></g><g fill="#ffffff" fill-opacity="1"><g transform="translate(332.229477, 233.409081)"><g><path d="M 5.273438 0.316406 C 7.636719 0.316406 9.859375 -0.789062 9.859375 -3.460938 C 9.859375 -5.835938 7.980469 -6.882812 6.285156 -7.769531 C 4.746094 -8.550781 3.445312 -9.148438 3.445312 -10.328125 C 3.445312 -11.285156 4.289062 -11.652344 5.335938 -11.652344 C 6.195312 -11.652344 7.207031 -11.417969 8.148438 -11.019531 C 8.359375 -10.933594 8.523438 -11.011719 8.613281 -11.222656 L 9.078125 -12.621094 C 9.167969 -12.832031 9.105469 -13 8.886719 -13.085938 C 7.671875 -13.542969 6.355469 -13.816406 5.289062 -13.816406 C 3.023438 -13.816406 0.949219 -12.742188 0.949219 -10.152344 C 0.949219 -7.988281 2.496094 -6.960938 4.128906 -6.0625 C 5.792969 -5.167969 7.355469 -4.535156 7.355469 -3.339844 C 7.355469 -2.347656 6.503906 -1.835938 5.210938 -1.835938 C 4.289062 -1.835938 3.128906 -2.054688 1.828125 -2.664062 C 1.609375 -2.757812 1.441406 -2.707031 1.351562 -2.496094 L 0.808594 -1.035156 C 0.71875 -0.816406 0.78125 -0.660156 1.011719 -0.554688 C 2.671875 0.0976562 3.980469 0.316406 5.273438 0.316406 Z M 5.273438 0.316406 "/></g></g></g></svg>