<svg xmlns="http://www.w3.org/2000/svg" xmlns:xlink="http://www.w3.org/1999/xlink" width="500" zoomAndPan="magnify" viewBox="0 0 375 374.999991" height="500" preserveAspectRatio="xMidYMid meet" version="1.0"><defs><g/></defs><rect x="-37.5" width="450" fill="rgb(100%, 100%, 100%)" y="-37.499999" height="449.999989" fill-opacity="1"/><rect x="-37.5" width="450" fill="rgb(100%, 100%, 100%)" y="-37.499999" height="449.999989" fill-opacity="1"/><rect x="-37.5" width="450" fill="rgb(9.799194%, 52.938843%, 32.939148%)" y="-37.499999" height="449.999989" fill-opacity="1"/><g fill="rgb(100%, 100%, 100%)" fill-opacity="1"><g transform="translate(54.984376, 205.699988)"><g><path d="M 52.207031 0 C 53.789062 0 54.609375 -0.820312 54.609375 -2.402344 L 54.609375 -12.1875 C 54.609375 -13.710938 53.789062 -14.589844 52.207031 -14.589844 L 25.371094 -14.589844 L 25.371094 -87.597656 C 25.371094 -89.179688 24.550781 -90 22.96875 -90 L 11.308594 -90 C 9.726562 -90 8.90625 -89.179688 8.90625 -87.597656 L 8.90625 -2.402344 C 8.90625 -0.820312 9.726562 0 11.308594 0 Z M 52.207031 0 "/></g></g><g transform="translate(111.527341, 205.699988)"><g><path d="M 34.335938 1.347656 C 50.214844 1.347656 61.640625 -8.203125 61.640625 -25.136719 L 61.640625 -59.648438 C 61.640625 -61.171875 60.761719 -62.050781 59.238281 -62.050781 L 48.925781 -62.050781 C 47.34375 -62.050781 46.523438 -61.171875 46.523438 -59.648438 L 46.523438 -25.605469 C 46.523438 -17.578125 42.011719 -12.480469 34.335938 -12.480469 C 26.894531 -12.480469 22.207031 -17.226562 22.207031 -25.605469 L 22.207031 -59.648438 C 22.207031 -61.171875 21.386719 -62.050781 19.804688 -62.050781 L 9.492188 -62.050781 C 7.910156 -62.050781 7.089844 -61.171875 7.089844 -59.648438 L 7.089844 -25.136719 C 7.089844 -8.203125 18.398438 1.347656 34.335938 1.347656 Z M 34.335938 1.347656 "/></g></g><g transform="translate(180.316399, 205.699988)"><g><path d="M 78.574219 -63.339844 C 70.722656 -63.339844 62.519531 -59.882812 57.421875 -53.554688 C 53.847656 -59.707031 47.226562 -63.339844 39.84375 -63.339844 C 33.574219 -63.339844 27.011719 -61.113281 20.859375 -54.960938 L 19.570312 -59.941406 C 19.21875 -61.40625 18.28125 -62.050781 16.933594 -62.050781 L 10.429688 -62.050781 C 8.90625 -62.050781 8.027344 -61.171875 8.027344 -59.648438 L 8.027344 -2.402344 C 8.027344 -0.820312 8.90625 0 10.429688 0 L 20.742188 0 C 22.324219 0 23.144531 -0.820312 23.144531 -2.402344 L 23.144531 -37.089844 C 23.144531 -44.648438 28.125 -50.097656 35.683594 -50.097656 C 43.417969 -50.097656 47.050781 -44.414062 47.050781 -36.855469 L 47.050781 -2.402344 C 47.050781 -0.820312 47.871094 0 49.453125 0 L 59.765625 0 C 61.347656 0 62.167969 -0.820312 62.167969 -2.402344 L 62.167969 -37.089844 C 62.167969 -44.648438 67.265625 -50.097656 74.707031 -50.097656 C 82.148438 -50.097656 85.898438 -44.414062 85.898438 -36.855469 L 85.898438 -2.402344 C 85.898438 -0.820312 86.777344 0 88.300781 0 L 98.613281 0 C 100.195312 0 101.015625 -0.820312 101.015625 -2.402344 L 101.015625 -39.375 C 101.015625 -52.851562 92.460938 -63.339844 78.574219 -63.339844 Z M 78.574219 -63.339844 "/></g></g><g transform="translate(288.714829, 205.699988)"><g><path d="M 15.527344 -68.027344 C 20.800781 -68.027344 24.726562 -72.011719 24.726562 -77.285156 C 24.726562 -82.5 20.800781 -86.601562 15.527344 -86.601562 C 10.253906 -86.601562 6.269531 -82.5 6.269531 -77.285156 C 6.269531 -72.011719 10.253906 -68.027344 15.527344 -68.027344 Z M 20.742188 0 C 22.324219 0 23.144531 -0.820312 23.144531 -2.402344 L 23.144531 -59.648438 C 23.144531 -61.171875 22.324219 -62.050781 20.742188 -62.050781 L 10.429688 -62.050781 C 8.90625 -62.050781 8.027344 -61.171875 8.027344 -59.648438 L 8.027344 -2.402344 C 8.027344 -0.820312 8.90625 0 10.429688 0 Z M 20.742188 0 "/></g></g></g><g fill="rgb(100%, 100%, 100%)" fill-opacity="1"><g transform="translate(45.742129, 267.349991)"><g><path d="M 6.890625 0 C 7.363281 0 7.609375 -0.246094 7.609375 -0.71875 L 7.609375 -8.753906 L 12.867188 -8.753906 C 19.054688 -8.753906 22.375 -12.039062 22.375 -17.980469 C 22.375 -23.414062 19.582031 -27 12.144531 -27 L 3.390625 -27 C 2.917969 -27 2.671875 -26.753906 2.671875 -26.277344 L 2.671875 -0.71875 C 2.671875 -0.246094 2.917969 0 3.390625 0 Z M 7.609375 -22.621094 L 11.511719 -22.621094 C 13.445312 -22.621094 17.472656 -22.585938 17.472656 -17.945312 C 17.472656 -13.164062 13.234375 -13.113281 11.511719 -13.113281 L 7.609375 -13.113281 Z M 7.609375 -22.621094 "/></g></g></g><g fill="rgb(100%, 100%, 100%)" fill-opacity="1"><g transform="translate(83.747861, 267.349991)"><g><path d="M 13.796875 -27 C 13.394531 -27.914062 12.636719 -27.914062 12.214844 -27 L 0.578125 -0.84375 C 0.351562 -0.332031 0.578125 0 1.105469 0 L 4.992188 0 C 5.378906 0 5.675781 -0.175781 5.816406 -0.5625 L 7.347656 -4.359375 L 18.683594 -4.359375 L 20.214844 -0.5625 C 20.355469 -0.175781 20.652344 0 21.039062 0 L 24.90625 0 C 25.453125 0 25.664062 -0.332031 25.453125 -0.84375 Z M 13.023438 -18.402344 L 17.085938 -8.3125 L 8.945312 -8.3125 Z M 13.023438 -18.402344 "/></g></g></g><g fill="rgb(100%, 100%, 100%)" fill-opacity="1"><g transform="translate(124.12664, 267.349991)"><g><path d="M 6.890625 0 C 7.363281 0 7.609375 -0.246094 7.609375 -0.71875 L 7.609375 -26.277344 C 7.609375 -26.753906 7.363281 -27 6.890625 -27 L 3.390625 -27 C 2.917969 -27 2.671875 -26.753906 2.671875 -26.277344 L 2.671875 -0.71875 C 2.671875 -0.246094 2.917969 0 3.390625 0 Z M 6.890625 0 "/></g></g></g><g fill="rgb(100%, 100%, 100%)" fill-opacity="1"><g transform="translate(148.737839, 267.349991)"><g><path d="M 10.582031 0 C 19.863281 0 24.890625 -5.078125 24.890625 -13.515625 C 24.890625 -22.042969 19.792969 -27 10.582031 -27 L 3.390625 -27 C 2.917969 -27 2.671875 -26.753906 2.671875 -26.277344 L 2.671875 -0.71875 C 2.671875 -0.246094 2.917969 0 3.390625 0 Z M 7.644531 -22.621094 L 10.5625 -22.621094 C 16.539062 -22.621094 19.949219 -19.421875 19.949219 -13.570312 C 19.949219 -7.714844 16.539062 -4.375 10.5625 -4.375 L 7.644531 -4.375 Z M 7.644531 -22.621094 "/></g></g></g><g fill="rgb(100%, 100%, 100%)" fill-opacity="1"><g transform="translate(189.573651, 267.349991)"><g/></g></g><g fill="rgb(100%, 100%, 100%)" fill-opacity="1"><g transform="translate(214.694622, 267.349991)"><g><path d="M 26.789062 -3.882812 C 28.984375 -6.308594 30.269531 -9.613281 30.269531 -13.5 C 30.269531 -21.917969 24.1875 -27.632812 15.960938 -27.632812 C 7.75 -27.632812 1.6875 -21.917969 1.6875 -13.5 C 1.6875 -5.0625 7.75 0.632812 15.960938 0.632812 C 18.808594 0.632812 21.390625 -0.0507812 23.570312 -1.28125 L 25.539062 0.878906 C 25.839844 1.230469 26.207031 1.246094 26.542969 0.894531 L 28.582031 -0.859375 C 28.933594 -1.210938 28.933594 -1.527344 28.617188 -1.863281 Z M 15.960938 -3.953125 C 10.667969 -3.953125 6.644531 -7.769531 6.644531 -13.5 C 6.644531 -19.246094 10.652344 -23.042969 15.960938 -23.042969 C 21.269531 -23.042969 25.328125 -19.246094 25.328125 -13.5 C 25.328125 -11.144531 24.644531 -9.105469 23.464844 -7.523438 L 20.019531 -11.320312 C 19.703125 -11.671875 19.351562 -11.6875 19 -11.355469 L 16.980469 -9.597656 C 16.628906 -9.261719 16.628906 -8.929688 16.945312 -8.578125 L 20.285156 -4.902344 C 19 -4.289062 17.542969 -3.953125 15.960938 -3.953125 Z M 15.960938 -3.953125 "/></g></g></g><g fill="rgb(100%, 100%, 100%)" fill-opacity="1"><g transform="translate(261.049954, 267.349991)"><g><path d="M 22.199219 -6.222656 L 25.890625 -10.175781 C 26.207031 -10.511719 26.226562 -10.84375 25.910156 -11.179688 L 23.957031 -13.148438 C 23.640625 -13.464844 23.273438 -13.535156 22.957031 -13.164062 L 19.160156 -9.121094 L 10.335938 -17.558594 C 8.910156 -18.949219 8.542969 -19.792969 8.542969 -20.8125 C 8.542969 -22.585938 9.753906 -23.800781 11.496094 -23.800781 C 13.164062 -23.800781 14.429688 -22.691406 14.429688 -21.023438 C 14.429688 -20.40625 14.21875 -19.738281 13.851562 -19.140625 C 13.65625 -18.753906 13.691406 -18.402344 13.992188 -18.105469 L 15.90625 -16.171875 C 16.242188 -15.835938 16.644531 -15.820312 16.945312 -16.242188 C 18.035156 -17.839844 18.527344 -19.476562 18.527344 -21.234375 C 18.527344 -24.765625 15.503906 -27.632812 11.582031 -27.632812 C 7.222656 -27.632812 4.324219 -24.625 4.324219 -20.582031 C 4.324219 -18.789062 5.203125 -17.066406 5.992188 -16.1875 L 4.796875 -15.0625 C 2.96875 -13.429688 2.019531 -11.039062 2.019531 -8.488281 C 2.019531 -3.601562 6.046875 0.632812 11.40625 0.632812 C 13.972656 0.632812 16.242188 -0.421875 18.402344 -2.335938 L 19.316406 -3.199219 L 22.921875 0.246094 C 23.253906 0.578125 23.605469 0.5625 23.941406 0.226562 L 25.839844 -1.722656 C 26.171875 -2.054688 26.171875 -2.441406 25.820312 -2.757812 Z M 15.484375 -5.273438 C 14.097656 -3.902344 12.761719 -3.410156 11.441406 -3.410156 C 8.523438 -3.410156 6.167969 -5.730469 6.167969 -8.453125 C 6.167969 -9.824219 6.660156 -11.074219 7.699219 -12.039062 L 8.894531 -13.183594 L 16.292969 -6.097656 Z M 15.484375 -5.273438 "/></g></g></g><g fill="rgb(100%, 100%, 100%)" fill-opacity="1"><g transform="translate(303.204126, 267.349991)"><g><path d="M 13.796875 -27 C 13.394531 -27.914062 12.636719 -27.914062 12.214844 -27 L 0.578125 -0.84375 C 0.351562 -0.332031 0.578125 0 1.105469 0 L 4.992188 0 C 5.378906 0 5.675781 -0.175781 5.816406 -0.5625 L 7.347656 -4.359375 L 18.683594 -4.359375 L 20.214844 -0.5625 C 20.355469 -0.175781 20.652344 0 21.039062 0 L 24.90625 0 C 25.453125 0 25.664062 -0.332031 25.453125 -0.84375 Z M 13.023438 -18.402344 L 17.085938 -8.3125 L 8.945312 -8.3125 Z M 13.023438 -18.402344 "/></g></g></g></svg>