<svg xmlns="http://www.w3.org/2000/svg" xmlns:xlink="http://www.w3.org/1999/xlink" width="500" zoomAndPan="magnify" viewBox="0 0 375 374.999991" height="500" preserveAspectRatio="xMidYMid meet" version="1.0"><defs><g/></defs><rect x="-37.5" width="450" fill="rgb(100%, 100%, 100%)" y="-37.499999" height="449.999989" fill-opacity="1"/><rect x="-37.5" width="450" fill="rgb(9.799194%, 52.938843%, 32.939148%)" y="-37.499999" height="449.999989" fill-opacity="1"/><rect x="-37.5" width="450" fill="rgb(100%, 100%, 100%)" y="-37.499999" height="449.999989" fill-opacity="1"/><rect x="-37.5" width="450" fill="rgb(9.799194%, 52.938843%, 32.939148%)" y="-37.499999" height="449.999989" fill-opacity="1"/><g fill="rgb(100%, 100%, 100%)" fill-opacity="1"><g transform="translate(36.219463, 221.999964)"><g><path d="M 59.601562 0 C 61.40625 0 62.34375 -0.9375 62.34375 -2.742188 L 62.34375 -13.914062 C 62.34375 -15.652344 61.40625 -16.65625 59.601562 -16.65625 L 28.964844 -16.65625 L 28.964844 -100.003906 C 28.964844 -101.808594 28.027344 -102.746094 26.222656 -102.746094 L 12.910156 -102.746094 C 11.105469 -102.746094 10.167969 -101.808594 10.167969 -100.003906 L 10.167969 -2.742188 C 10.167969 -0.9375 11.105469 0 12.910156 0 Z M 59.601562 0 "/></g></g></g><g fill="rgb(100%, 100%, 100%)" fill-opacity="1"><g transform="translate(100.769, 221.999964)"><g><path d="M 39.199219 1.539062 C 57.328125 1.539062 70.371094 -9.363281 70.371094 -28.695312 L 70.371094 -68.097656 C 70.371094 -69.835938 69.367188 -70.839844 67.628906 -70.839844 L 55.855469 -70.839844 C 54.046875 -70.839844 53.113281 -69.835938 53.113281 -68.097656 L 53.113281 -29.230469 C 53.113281 -20.066406 47.960938 -14.246094 39.199219 -14.246094 C 30.703125 -14.246094 25.351562 -19.667969 25.351562 -29.230469 L 25.351562 -68.097656 C 25.351562 -69.835938 24.414062 -70.839844 22.609375 -70.839844 L 10.835938 -70.839844 C 9.03125 -70.839844 8.09375 -69.835938 8.09375 -68.097656 L 8.09375 -28.695312 C 8.09375 -9.363281 21.003906 1.539062 39.199219 1.539062 Z M 39.199219 1.539062 "/></g></g></g><g fill="rgb(100%, 100%, 100%)" fill-opacity="1"><g transform="translate(179.298696, 221.999964)"><g><path d="M 89.703125 -72.308594 C 80.738281 -72.308594 71.375 -68.363281 65.554688 -61.140625 C 61.472656 -68.164062 53.914062 -72.308594 45.488281 -72.308594 C 38.328125 -72.308594 30.835938 -69.769531 23.8125 -62.746094 L 22.34375 -68.429688 C 21.941406 -70.101562 20.871094 -70.839844 19.332031 -70.839844 L 11.90625 -70.839844 C 10.167969 -70.839844 9.164062 -69.835938 9.164062 -68.097656 L 9.164062 -2.742188 C 9.164062 -0.9375 10.167969 0 11.90625 0 L 23.679688 0 C 25.484375 0 26.421875 -0.9375 26.421875 -2.742188 L 26.421875 -42.34375 C 26.421875 -50.972656 32.109375 -57.191406 40.738281 -57.191406 C 49.566406 -57.191406 53.714844 -50.703125 53.714844 -42.074219 L 53.714844 -2.742188 C 53.714844 -0.9375 54.652344 0 56.457031 0 L 68.230469 0 C 70.035156 0 70.972656 -0.9375 70.972656 -2.742188 L 70.972656 -42.34375 C 70.972656 -50.972656 76.792969 -57.191406 85.289062 -57.191406 C 93.78125 -57.191406 98.0625 -50.703125 98.0625 -42.074219 L 98.0625 -2.742188 C 98.0625 -0.9375 99.066406 0 100.804688 0 L 112.578125 0 C 114.386719 0 115.320312 -0.9375 115.320312 -2.742188 L 115.320312 -44.953125 C 115.320312 -60.335938 105.554688 -72.308594 89.703125 -72.308594 Z M 89.703125 -72.308594 "/></g></g></g><g fill="rgb(100%, 100%, 100%)" fill-opacity="1"><g transform="translate(303.046502, 221.999964)"><g><path d="M 17.726562 -77.660156 C 23.746094 -77.660156 28.226562 -82.210938 28.226562 -88.230469 C 28.226562 -94.183594 23.746094 -98.867188 17.726562 -98.867188 C 11.707031 -98.867188 7.15625 -94.183594 7.15625 -88.230469 C 7.15625 -82.210938 11.707031 -77.660156 17.726562 -77.660156 Z M 23.679688 0 C 25.484375 0 26.421875 -0.9375 26.421875 -2.742188 L 26.421875 -68.097656 C 26.421875 -69.835938 25.484375 -70.839844 23.679688 -70.839844 L 11.90625 -70.839844 C 10.167969 -70.839844 9.164062 -69.835938 9.164062 -68.097656 L 9.164062 -2.742188 C 9.164062 -0.9375 10.167969 0 11.90625 0 Z M 23.679688 0 "/></g></g></g><g fill="rgb(100%, 100%, 100%)" fill-opacity="1"><g transform="translate(43.764058, 258.949977)"><g><path d="M 8.628906 0 C 13.695312 0 15.039062 -2.710938 15.039062 -5.332031 C 15.039062 -7.105469 14.183594 -8.847656 12.058594 -9.605469 C 13.609375 -10.507812 14.402344 -12.046875 14.402344 -13.878906 C 14.402344 -16.613281 12.851562 -18.75 8.3125 -18.75 L 2.355469 -18.75 C 2.027344 -18.75 1.855469 -18.578125 1.855469 -18.246094 L 1.855469 -0.5 C 1.855469 -0.171875 2.027344 0 2.355469 0 Z M 5.285156 -15.707031 L 8.238281 -15.707031 C 10.644531 -15.707031 11.265625 -14.746094 11.265625 -13.390625 C 11.265625 -11.9375 10.65625 -10.9375 8.640625 -10.9375 L 5.285156 -10.9375 Z M 5.285156 -8.214844 L 8.691406 -8.214844 C 10.863281 -8.214844 11.59375 -7.140625 11.59375 -5.6875 C 11.59375 -4.308594 11.09375 -3.039062 8.53125 -3.039062 L 5.285156 -3.039062 Z M 5.285156 -8.214844 "/></g></g></g><g fill="rgb(100%, 100%, 100%)" fill-opacity="1"><g transform="translate(69.971272, 258.949977)"><g><path d="M 10.984375 0.4375 C 16.699219 0.4375 20.921875 -3.515625 20.921875 -9.375 C 20.921875 -15.21875 16.699219 -19.1875 10.984375 -19.1875 C 5.285156 -19.1875 1.074219 -15.21875 1.074219 -9.375 C 1.074219 -3.515625 5.285156 0.4375 10.984375 0.4375 Z M 10.984375 -2.746094 C 7.3125 -2.746094 4.515625 -5.394531 4.515625 -9.375 C 4.515625 -13.367188 7.300781 -16 10.984375 -16 C 14.671875 -16 17.492188 -13.367188 17.492188 -9.375 C 17.492188 -5.382812 14.671875 -2.746094 10.984375 -2.746094 Z M 10.984375 -2.746094 "/></g></g></g><g fill="rgb(100%, 100%, 100%)" fill-opacity="1"><g transform="translate(101.939305, 258.949977)"><g><path d="M 10.984375 0.4375 C 16.699219 0.4375 20.921875 -3.515625 20.921875 -9.375 C 20.921875 -15.21875 16.699219 -19.1875 10.984375 -19.1875 C 5.285156 -19.1875 1.074219 -15.21875 1.074219 -9.375 C 1.074219 -3.515625 5.285156 0.4375 10.984375 0.4375 Z M 10.984375 -2.746094 C 7.3125 -2.746094 4.515625 -5.394531 4.515625 -9.375 C 4.515625 -13.367188 7.300781 -16 10.984375 -16 C 14.671875 -16 17.492188 -13.367188 17.492188 -9.375 C 17.492188 -5.382812 14.671875 -2.746094 10.984375 -2.746094 Z M 10.984375 -2.746094 "/></g></g></g><g fill="rgb(100%, 100%, 100%)" fill-opacity="1"><g transform="translate(133.907337, 258.949977)"><g><path d="M 7.324219 0.4375 C 10.605469 0.4375 13.695312 -1.097656 13.695312 -4.808594 C 13.695312 -8.105469 11.082031 -9.558594 8.726562 -10.789062 C 6.589844 -11.875 4.785156 -12.707031 4.785156 -14.34375 C 4.785156 -15.671875 5.957031 -16.183594 7.410156 -16.183594 C 8.605469 -16.183594 10.007812 -15.855469 11.316406 -15.304688 C 11.609375 -15.183594 11.839844 -15.292969 11.960938 -15.585938 L 12.609375 -17.527344 C 12.730469 -17.820312 12.644531 -18.050781 12.339844 -18.175781 C 10.65625 -18.808594 8.824219 -19.1875 7.347656 -19.1875 C 4.199219 -19.1875 1.316406 -17.699219 1.316406 -14.097656 C 1.316406 -11.09375 3.464844 -9.667969 5.738281 -8.421875 C 8.042969 -7.175781 10.214844 -6.296875 10.214844 -4.636719 C 10.214844 -3.257812 9.03125 -2.550781 7.238281 -2.550781 C 5.957031 -2.550781 4.34375 -2.855469 2.539062 -3.699219 C 2.234375 -3.832031 2 -3.757812 1.878906 -3.464844 L 1.121094 -1.441406 C 1 -1.136719 1.085938 -0.914062 1.402344 -0.769531 C 3.710938 0.132812 5.527344 0.4375 7.324219 0.4375 Z M 7.324219 0.4375 "/></g></g></g><g fill="rgb(100%, 100%, 100%)" fill-opacity="1"><g transform="translate(158.540096, 258.949977)"><g><path d="M 7.886719 0 C 8.214844 0 8.386719 -0.171875 8.386719 -0.5 L 8.386719 -15.707031 L 12.449219 -15.707031 C 12.78125 -15.707031 12.949219 -15.890625 12.949219 -16.210938 L 12.949219 -18.246094 C 12.949219 -18.578125 12.78125 -18.75 12.449219 -18.75 L 0.878906 -18.75 C 0.550781 -18.75 0.378906 -18.578125 0.378906 -18.246094 L 0.378906 -16.210938 C 0.378906 -15.890625 0.550781 -15.707031 0.878906 -15.707031 L 4.929688 -15.707031 L 4.929688 -0.5 C 4.929688 -0.171875 5.113281 0 5.429688 0 Z M 7.886719 0 "/></g></g></g><g fill="rgb(100%, 100%, 100%)" fill-opacity="1"><g transform="translate(181.830286, 258.949977)"><g><path d="M 12.460938 0 C 12.792969 0 12.960938 -0.171875 12.960938 -0.5 L 12.960938 -2.539062 C 12.960938 -2.855469 12.792969 -3.039062 12.460938 -3.039062 L 5.285156 -3.039062 L 5.285156 -6.175781 L 11.484375 -6.175781 C 11.816406 -6.175781 11.984375 -6.347656 11.984375 -6.675781 L 11.984375 -8.582031 C 11.984375 -8.910156 11.816406 -9.082031 11.484375 -9.082031 L 5.285156 -9.082031 L 5.285156 -15.707031 L 12.460938 -15.707031 C 12.792969 -15.707031 12.960938 -15.890625 12.960938 -16.210938 L 12.960938 -18.246094 C 12.960938 -18.578125 12.792969 -18.75 12.460938 -18.75 L 2.355469 -18.75 C 2.027344 -18.75 1.855469 -18.578125 1.855469 -18.246094 L 1.855469 -0.5 C 1.855469 -0.171875 2.027344 0 2.355469 0 Z M 12.460938 0 "/></g></g></g><g fill="rgb(100%, 100%, 100%)" fill-opacity="1"><g transform="translate(205.901605, 258.949977)"><g><path d="M 7.347656 0 C 13.792969 0 17.285156 -3.527344 17.285156 -9.386719 C 17.285156 -15.304688 13.742188 -18.75 7.347656 -18.75 L 2.355469 -18.75 C 2.027344 -18.75 1.855469 -18.578125 1.855469 -18.246094 L 1.855469 -0.5 C 1.855469 -0.171875 2.027344 0 2.355469 0 Z M 5.308594 -15.707031 L 7.335938 -15.707031 C 11.484375 -15.707031 13.855469 -13.488281 13.855469 -9.421875 C 13.855469 -5.359375 11.484375 -3.039062 7.335938 -3.039062 L 5.308594 -3.039062 Z M 5.308594 -15.707031 "/></g></g></g><g fill="rgb(100%, 100%, 100%)" fill-opacity="1"><g transform="translate(234.256926, 258.949977)"><g/></g></g><g fill="rgb(100%, 100%, 100%)" fill-opacity="1"><g transform="translate(251.700856, 258.949977)"><g><path d="M 18.601562 -2.699219 C 20.128906 -4.382812 21.019531 -6.675781 21.019531 -9.375 C 21.019531 -15.21875 16.796875 -19.1875 11.082031 -19.1875 C 5.382812 -19.1875 1.171875 -15.21875 1.171875 -9.375 C 1.171875 -3.515625 5.382812 0.4375 11.082031 0.4375 C 13.058594 0.4375 14.855469 -0.0351562 16.367188 -0.890625 L 17.734375 0.609375 C 17.941406 0.855469 18.199219 0.867188 18.429688 0.621094 L 19.847656 -0.597656 C 20.089844 -0.84375 20.089844 -1.0625 19.871094 -1.292969 Z M 11.082031 -2.746094 C 7.410156 -2.746094 4.613281 -5.394531 4.613281 -9.375 C 4.613281 -13.367188 7.398438 -16 11.082031 -16 C 14.769531 -16 17.589844 -13.367188 17.589844 -9.375 C 17.589844 -7.738281 17.113281 -6.324219 16.292969 -5.222656 L 13.902344 -7.859375 C 13.683594 -8.105469 13.4375 -8.117188 13.195312 -7.886719 L 11.789062 -6.664062 C 11.546875 -6.433594 11.546875 -6.199219 11.765625 -5.957031 L 14.085938 -3.40625 C 13.195312 -2.976562 12.179688 -2.746094 11.082031 -2.746094 Z M 11.082031 -2.746094 "/></g></g></g><g fill="rgb(100%, 100%, 100%)" fill-opacity="1"><g transform="translate(283.888576, 258.949977)"><g><path d="M 15.414062 -4.320312 L 17.980469 -7.066406 C 18.199219 -7.300781 18.210938 -7.53125 17.992188 -7.761719 L 16.636719 -9.128906 C 16.417969 -9.351562 16.160156 -9.398438 15.941406 -9.140625 L 13.304688 -6.335938 L 7.175781 -12.195312 C 6.1875 -13.15625 5.933594 -13.742188 5.933594 -14.453125 C 5.933594 -15.683594 6.773438 -16.527344 7.984375 -16.527344 C 9.140625 -16.527344 10.019531 -15.757812 10.019531 -14.597656 C 10.019531 -14.171875 9.875 -13.707031 9.617188 -13.292969 C 9.484375 -13.023438 9.507812 -12.78125 9.714844 -12.570312 L 11.046875 -11.230469 C 11.277344 -10.996094 11.558594 -10.984375 11.765625 -11.277344 C 12.523438 -12.390625 12.863281 -13.523438 12.863281 -14.746094 C 12.863281 -17.199219 10.765625 -19.1875 8.042969 -19.1875 C 5.015625 -19.1875 3.003906 -17.101562 3.003906 -14.292969 C 3.003906 -13.046875 3.613281 -11.851562 4.164062 -11.242188 L 3.332031 -10.460938 C 2.0625 -9.324219 1.402344 -7.664062 1.402344 -5.894531 C 1.402344 -2.503906 4.199219 0.4375 7.921875 0.4375 C 9.703125 0.4375 11.277344 -0.292969 12.78125 -1.625 L 13.414062 -2.222656 L 15.917969 0.171875 C 16.148438 0.402344 16.390625 0.390625 16.625 0.160156 L 17.941406 -1.195312 C 18.175781 -1.429688 18.175781 -1.695312 17.929688 -1.917969 Z M 10.753906 -3.660156 C 9.789062 -2.710938 8.863281 -2.367188 7.945312 -2.367188 C 5.917969 -2.367188 4.285156 -3.980469 4.285156 -5.871094 C 4.285156 -6.824219 4.625 -7.691406 5.347656 -8.359375 L 6.175781 -9.15625 L 11.316406 -4.234375 Z M 10.753906 -3.660156 "/></g></g></g><g fill="rgb(100%, 100%, 100%)" fill-opacity="1"><g transform="translate(313.159287, 258.949977)"><g><path d="M 9.582031 -18.75 C 9.300781 -19.382812 8.777344 -19.382812 8.484375 -18.75 L 0.402344 -0.585938 C 0.242188 -0.230469 0.402344 0 0.769531 0 L 3.464844 0 C 3.734375 0 3.941406 -0.121094 4.039062 -0.390625 L 5.101562 -3.027344 L 12.976562 -3.027344 L 14.035156 -0.390625 C 14.132812 -0.121094 14.34375 0 14.609375 0 L 17.296875 0 C 17.675781 0 17.820312 -0.230469 17.675781 -0.585938 Z M 9.042969 -12.78125 L 11.863281 -5.773438 L 6.210938 -5.773438 Z M 9.042969 -12.78125 "/></g></g></g></svg>