<svg xmlns="http://www.w3.org/2000/svg" xmlns:xlink="http://www.w3.org/1999/xlink" width="500" zoomAndPan="magnify" viewBox="0 0 375 374.999991" height="500" preserveAspectRatio="xMidYMid meet" version="1.0"><defs><g/></defs><rect x="-37.5" width="450" fill="rgb(100%, 100%, 100%)" y="-37.499999" height="449.999989" fill-opacity="1"/><rect x="-37.5" width="450" fill="rgb(100%, 100%, 100%)" y="-37.499999" height="449.999989" fill-opacity="1"/><rect x="-37.5" width="450" fill="rgb(9.799194%, 52.938843%, 32.939148%)" y="-37.499999" height="449.999989" fill-opacity="1"/><g fill="rgb(100%, 100%, 100%)" fill-opacity="1"><g transform="translate(38.425783, 219.949987)"><g><path d="M 58.734375 0 C 60.511719 0 61.433594 -0.921875 61.433594 -2.703125 L 61.433594 -13.710938 C 61.433594 -15.425781 60.511719 -16.414062 58.734375 -16.414062 L 28.542969 -16.414062 L 28.542969 -98.546875 C 28.542969 -100.328125 27.621094 -101.25 25.839844 -101.25 L 12.722656 -101.25 C 10.941406 -101.25 10.019531 -100.328125 10.019531 -98.546875 L 10.019531 -2.703125 C 10.019531 -0.921875 10.941406 0 12.722656 0 Z M 58.734375 0 "/></g></g><g transform="translate(102.036619, 219.949987)"><g><path d="M 38.628906 1.515625 C 56.492188 1.515625 69.34375 -9.226562 69.34375 -28.277344 L 69.34375 -67.105469 C 69.34375 -68.816406 68.355469 -69.808594 66.644531 -69.808594 L 55.042969 -69.808594 C 53.261719 -69.808594 52.339844 -68.816406 52.339844 -67.105469 L 52.339844 -28.804688 C 52.339844 -19.773438 47.261719 -14.039062 38.628906 -14.039062 C 30.257812 -14.039062 24.984375 -19.378906 24.984375 -28.804688 L 24.984375 -67.105469 C 24.984375 -68.816406 24.058594 -69.808594 22.28125 -69.808594 L 10.679688 -69.808594 C 8.898438 -69.808594 7.976562 -68.816406 7.976562 -67.105469 L 7.976562 -28.277344 C 7.976562 -9.226562 20.699219 1.515625 38.628906 1.515625 Z M 38.628906 1.515625 "/></g></g><g transform="translate(179.424309, 219.949987)"><g><path d="M 88.394531 -71.257812 C 79.5625 -71.257812 70.335938 -67.367188 64.597656 -60.25 C 60.578125 -67.171875 53.128906 -71.257812 44.824219 -71.257812 C 37.769531 -71.257812 30.386719 -68.753906 23.464844 -61.832031 L 22.015625 -67.433594 C 21.621094 -69.082031 20.566406 -69.808594 19.050781 -69.808594 L 11.734375 -69.808594 C 10.019531 -69.808594 9.03125 -68.816406 9.03125 -67.105469 L 9.03125 -2.703125 C 9.03125 -0.921875 10.019531 0 11.734375 0 L 23.335938 0 C 25.113281 0 26.039062 -0.921875 26.039062 -2.703125 L 26.039062 -41.726562 C 26.039062 -50.230469 31.640625 -56.359375 40.144531 -56.359375 C 48.84375 -56.359375 52.933594 -49.964844 52.933594 -41.460938 L 52.933594 -2.703125 C 52.933594 -0.921875 53.855469 0 55.632812 0 L 67.234375 0 C 69.015625 0 69.9375 -0.921875 69.9375 -2.703125 L 69.9375 -41.726562 C 69.9375 -50.230469 75.671875 -56.359375 84.046875 -56.359375 C 92.417969 -56.359375 96.636719 -49.964844 96.636719 -41.460938 L 96.636719 -2.703125 C 96.636719 -0.921875 97.625 0 99.339844 0 L 110.941406 0 C 112.71875 0 113.640625 -0.921875 113.640625 -2.703125 L 113.640625 -44.296875 C 113.640625 -59.457031 104.019531 -71.257812 88.394531 -71.257812 Z M 88.394531 -71.257812 "/></g></g><g transform="translate(301.372543, 219.949987)"><g><path d="M 17.46875 -76.53125 C 23.402344 -76.53125 27.816406 -81.011719 27.816406 -86.945312 C 27.816406 -92.8125 23.402344 -97.425781 17.46875 -97.425781 C 11.535156 -97.425781 7.054688 -92.8125 7.054688 -86.945312 C 7.054688 -81.011719 11.535156 -76.53125 17.46875 -76.53125 Z M 23.335938 0 C 25.113281 0 26.039062 -0.921875 26.039062 -2.703125 L 26.039062 -67.105469 C 26.039062 -68.816406 25.113281 -69.808594 23.335938 -69.808594 L 11.734375 -69.808594 C 10.019531 -69.808594 9.03125 -68.816406 9.03125 -67.105469 L 9.03125 -2.703125 C 9.03125 -0.921875 10.019531 0 11.734375 0 Z M 23.335938 0 "/></g></g></g><g fill="rgb(100%, 100%, 100%)" fill-opacity="1"><g transform="translate(45.742129, 267.349991)"><g><path d="M 6.890625 0 C 7.363281 0 7.609375 -0.246094 7.609375 -0.71875 L 7.609375 -8.753906 L 12.867188 -8.753906 C 19.054688 -8.753906 22.375 -12.039062 22.375 -17.980469 C 22.375 -23.414062 19.582031 -27 12.144531 -27 L 3.390625 -27 C 2.917969 -27 2.671875 -26.753906 2.671875 -26.277344 L 2.671875 -0.71875 C 2.671875 -0.246094 2.917969 0 3.390625 0 Z M 7.609375 -22.621094 L 11.511719 -22.621094 C 13.445312 -22.621094 17.472656 -22.585938 17.472656 -17.945312 C 17.472656 -13.164062 13.234375 -13.113281 11.511719 -13.113281 L 7.609375 -13.113281 Z M 7.609375 -22.621094 "/></g></g></g><g fill="rgb(100%, 100%, 100%)" fill-opacity="1"><g transform="translate(83.747861, 267.349991)"><g><path d="M 13.796875 -27 C 13.394531 -27.914062 12.636719 -27.914062 12.214844 -27 L 0.578125 -0.84375 C 0.351562 -0.332031 0.578125 0 1.105469 0 L 4.992188 0 C 5.378906 0 5.675781 -0.175781 5.816406 -0.5625 L 7.347656 -4.359375 L 18.683594 -4.359375 L 20.214844 -0.5625 C 20.355469 -0.175781 20.652344 0 21.039062 0 L 24.90625 0 C 25.453125 0 25.664062 -0.332031 25.453125 -0.84375 Z M 13.023438 -18.402344 L 17.085938 -8.3125 L 8.945312 -8.3125 Z M 13.023438 -18.402344 "/></g></g></g><g fill="rgb(100%, 100%, 100%)" fill-opacity="1"><g transform="translate(124.12664, 267.349991)"><g><path d="M 6.890625 0 C 7.363281 0 7.609375 -0.246094 7.609375 -0.71875 L 7.609375 -26.277344 C 7.609375 -26.753906 7.363281 -27 6.890625 -27 L 3.390625 -27 C 2.917969 -27 2.671875 -26.753906 2.671875 -26.277344 L 2.671875 -0.71875 C 2.671875 -0.246094 2.917969 0 3.390625 0 Z M 6.890625 0 "/></g></g></g><g fill="rgb(100%, 100%, 100%)" fill-opacity="1"><g transform="translate(148.737839, 267.349991)"><g><path d="M 10.582031 0 C 19.863281 0 24.890625 -5.078125 24.890625 -13.515625 C 24.890625 -22.042969 19.792969 -27 10.582031 -27 L 3.390625 -27 C 2.917969 -27 2.671875 -26.753906 2.671875 -26.277344 L 2.671875 -0.71875 C 2.671875 -0.246094 2.917969 0 3.390625 0 Z M 7.644531 -22.621094 L 10.5625 -22.621094 C 16.539062 -22.621094 19.949219 -19.421875 19.949219 -13.570312 C 19.949219 -7.714844 16.539062 -4.375 10.5625 -4.375 L 7.644531 -4.375 Z M 7.644531 -22.621094 "/></g></g></g><g fill="rgb(100%, 100%, 100%)" fill-opacity="1"><g transform="translate(189.573651, 267.349991)"><g/></g></g><g fill="rgb(100%, 100%, 100%)" fill-opacity="1"><g transform="translate(214.694622, 267.349991)"><g><path d="M 26.789062 -3.882812 C 28.984375 -6.308594 30.269531 -9.613281 30.269531 -13.5 C 30.269531 -21.917969 24.1875 -27.632812 15.960938 -27.632812 C 7.75 -27.632812 1.6875 -21.917969 1.6875 -13.5 C 1.6875 -5.0625 7.75 0.632812 15.960938 0.632812 C 18.808594 0.632812 21.390625 -0.0507812 23.570312 -1.28125 L 25.539062 0.878906 C 25.839844 1.230469 26.207031 1.246094 26.542969 0.894531 L 28.582031 -0.859375 C 28.933594 -1.210938 28.933594 -1.527344 28.617188 -1.863281 Z M 15.960938 -3.953125 C 10.667969 -3.953125 6.644531 -7.769531 6.644531 -13.5 C 6.644531 -19.246094 10.652344 -23.042969 15.960938 -23.042969 C 21.269531 -23.042969 25.328125 -19.246094 25.328125 -13.5 C 25.328125 -11.144531 24.644531 -9.105469 23.464844 -7.523438 L 20.019531 -11.320312 C 19.703125 -11.671875 19.351562 -11.6875 19 -11.355469 L 16.980469 -9.597656 C 16.628906 -9.261719 16.628906 -8.929688 16.945312 -8.578125 L 20.285156 -4.902344 C 19 -4.289062 17.542969 -3.953125 15.960938 -3.953125 Z M 15.960938 -3.953125 "/></g></g></g><g fill="rgb(100%, 100%, 100%)" fill-opacity="1"><g transform="translate(261.049954, 267.349991)"><g><path d="M 22.199219 -6.222656 L 25.890625 -10.175781 C 26.207031 -10.511719 26.226562 -10.84375 25.910156 -11.179688 L 23.957031 -13.148438 C 23.640625 -13.464844 23.273438 -13.535156 22.957031 -13.164062 L 19.160156 -9.121094 L 10.335938 -17.558594 C 8.910156 -18.949219 8.542969 -19.792969 8.542969 -20.8125 C 8.542969 -22.585938 9.753906 -23.800781 11.496094 -23.800781 C 13.164062 -23.800781 14.429688 -22.691406 14.429688 -21.023438 C 14.429688 -20.40625 14.21875 -19.738281 13.851562 -19.140625 C 13.65625 -18.753906 13.691406 -18.402344 13.992188 -18.105469 L 15.90625 -16.171875 C 16.242188 -15.835938 16.644531 -15.820312 16.945312 -16.242188 C 18.035156 -17.839844 18.527344 -19.476562 18.527344 -21.234375 C 18.527344 -24.765625 15.503906 -27.632812 11.582031 -27.632812 C 7.222656 -27.632812 4.324219 -24.625 4.324219 -20.582031 C 4.324219 -18.789062 5.203125 -17.066406 5.992188 -16.1875 L 4.796875 -15.0625 C 2.96875 -13.429688 2.019531 -11.039062 2.019531 -8.488281 C 2.019531 -3.601562 6.046875 0.632812 11.40625 0.632812 C 13.972656 0.632812 16.242188 -0.421875 18.402344 -2.335938 L 19.316406 -3.199219 L 22.921875 0.246094 C 23.253906 0.578125 23.605469 0.5625 23.941406 0.226562 L 25.839844 -1.722656 C 26.171875 -2.054688 26.171875 -2.441406 25.820312 -2.757812 Z M 15.484375 -5.273438 C 14.097656 -3.902344 12.761719 -3.410156 11.441406 -3.410156 C 8.523438 -3.410156 6.167969 -5.730469 6.167969 -8.453125 C 6.167969 -9.824219 6.660156 -11.074219 7.699219 -12.039062 L 8.894531 -13.183594 L 16.292969 -6.097656 Z M 15.484375 -5.273438 "/></g></g></g><g fill="rgb(100%, 100%, 100%)" fill-opacity="1"><g transform="translate(303.204126, 267.349991)"><g><path d="M 13.796875 -27 C 13.394531 -27.914062 12.636719 -27.914062 12.214844 -27 L 0.578125 -0.84375 C 0.351562 -0.332031 0.578125 0 1.105469 0 L 4.992188 0 C 5.378906 0 5.675781 -0.175781 5.816406 -0.5625 L 7.347656 -4.359375 L 18.683594 -4.359375 L 20.214844 -0.5625 C 20.355469 -0.175781 20.652344 0 21.039062 0 L 24.90625 0 C 25.453125 0 25.664062 -0.332031 25.453125 -0.84375 Z M 13.023438 -18.402344 L 17.085938 -8.3125 L 8.945312 -8.3125 Z M 13.023438 -18.402344 "/></g></g></g></svg>