<svg xmlns="http://www.w3.org/2000/svg" xmlns:xlink="http://www.w3.org/1999/xlink" width="500" zoomAndPan="magnify" viewBox="0 0 375 374.999991" height="500" preserveAspectRatio="xMidYMid meet" version="1.0"><defs><g/></defs><rect x="-37.5" width="450" fill="rgb(100%, 100%, 100%)" y="-37.499999" height="449.999989" fill-opacity="1"/><rect x="-37.5" width="450" fill="rgb(9.799194%, 52.938843%, 32.939148%)" y="-37.499999" height="449.999989" fill-opacity="1"/><rect x="-37.5" width="450" fill="rgb(100%, 100%, 100%)" y="-37.499999" height="449.999989" fill-opacity="1"/><rect x="-37.5" width="450" fill="rgb(9.799194%, 52.938843%, 32.939148%)" y="-37.499999" height="449.999989" fill-opacity="1"/><g fill="rgb(100%, 100%, 100%)" fill-opacity="1"><g transform="translate(38.425783, 219.949987)"><g><path d="M 58.734375 0 C 60.511719 0 61.433594 -0.921875 61.433594 -2.703125 L 61.433594 -13.710938 C 61.433594 -15.425781 60.511719 -16.414062 58.734375 -16.414062 L 28.542969 -16.414062 L 28.542969 -98.546875 C 28.542969 -100.328125 27.621094 -101.25 25.839844 -101.25 L 12.722656 -101.25 C 10.941406 -101.25 10.019531 -100.328125 10.019531 -98.546875 L 10.019531 -2.703125 C 10.019531 -0.921875 10.941406 0 12.722656 0 Z M 58.734375 0 "/></g></g><g transform="translate(102.036619, 219.949987)"><g><path d="M 38.628906 1.515625 C 56.492188 1.515625 69.34375 -9.226562 69.34375 -28.277344 L 69.34375 -67.105469 C 69.34375 -68.816406 68.355469 -69.808594 66.644531 -69.808594 L 55.042969 -69.808594 C 53.261719 -69.808594 52.339844 -68.816406 52.339844 -67.105469 L 52.339844 -28.804688 C 52.339844 -19.773438 47.261719 -14.039062 38.628906 -14.039062 C 30.257812 -14.039062 24.984375 -19.378906 24.984375 -28.804688 L 24.984375 -67.105469 C 24.984375 -68.816406 24.058594 -69.808594 22.28125 -69.808594 L 10.679688 -69.808594 C 8.898438 -69.808594 7.976562 -68.816406 7.976562 -67.105469 L 7.976562 -28.277344 C 7.976562 -9.226562 20.699219 1.515625 38.628906 1.515625 Z M 38.628906 1.515625 "/></g></g><g transform="translate(179.424309, 219.949987)"><g><path d="M 88.394531 -71.257812 C 79.5625 -71.257812 70.335938 -67.367188 64.597656 -60.25 C 60.578125 -67.171875 53.128906 -71.257812 44.824219 -71.257812 C 37.769531 -71.257812 30.386719 -68.753906 23.464844 -61.832031 L 22.015625 -67.433594 C 21.621094 -69.082031 20.566406 -69.808594 19.050781 -69.808594 L 11.734375 -69.808594 C 10.019531 -69.808594 9.03125 -68.816406 9.03125 -67.105469 L 9.03125 -2.703125 C 9.03125 -0.921875 10.019531 0 11.734375 0 L 23.335938 0 C 25.113281 0 26.039062 -0.921875 26.039062 -2.703125 L 26.039062 -41.726562 C 26.039062 -50.230469 31.640625 -56.359375 40.144531 -56.359375 C 48.84375 -56.359375 52.933594 -49.964844 52.933594 -41.460938 L 52.933594 -2.703125 C 52.933594 -0.921875 53.855469 0 55.632812 0 L 67.234375 0 C 69.015625 0 69.9375 -0.921875 69.9375 -2.703125 L 69.9375 -41.726562 C 69.9375 -50.230469 75.671875 -56.359375 84.046875 -56.359375 C 92.417969 -56.359375 96.636719 -49.964844 96.636719 -41.460938 L 96.636719 -2.703125 C 96.636719 -0.921875 97.625 0 99.339844 0 L 110.941406 0 C 112.71875 0 113.640625 -0.921875 113.640625 -2.703125 L 113.640625 -44.296875 C 113.640625 -59.457031 104.019531 -71.257812 88.394531 -71.257812 Z M 88.394531 -71.257812 "/></g></g><g transform="translate(301.372543, 219.949987)"><g><path d="M 17.46875 -76.53125 C 23.402344 -76.53125 27.816406 -81.011719 27.816406 -86.945312 C 27.816406 -92.8125 23.402344 -97.425781 17.46875 -97.425781 C 11.535156 -97.425781 7.054688 -92.8125 7.054688 -86.945312 C 7.054688 -81.011719 11.535156 -76.53125 17.46875 -76.53125 Z M 23.335938 0 C 25.113281 0 26.039062 -0.921875 26.039062 -2.703125 L 26.039062 -67.105469 C 26.039062 -68.816406 25.113281 -69.808594 23.335938 -69.808594 L 11.734375 -69.808594 C 10.019531 -69.808594 9.03125 -68.816406 9.03125 -67.105469 L 9.03125 -2.703125 C 9.03125 -0.921875 10.019531 0 11.734375 0 Z M 23.335938 0 "/></g></g></g><g fill="rgb(100%, 100%, 100%)" fill-opacity="1"><g transform="translate(43.764058, 258.949977)"><g><path d="M 8.628906 0 C 13.695312 0 15.039062 -2.710938 15.039062 -5.332031 C 15.039062 -7.105469 14.183594 -8.847656 12.058594 -9.605469 C 13.609375 -10.507812 14.402344 -12.046875 14.402344 -13.878906 C 14.402344 -16.613281 12.851562 -18.75 8.3125 -18.75 L 2.355469 -18.75 C 2.027344 -18.75 1.855469 -18.578125 1.855469 -18.246094 L 1.855469 -0.5 C 1.855469 -0.171875 2.027344 0 2.355469 0 Z M 5.285156 -15.707031 L 8.238281 -15.707031 C 10.644531 -15.707031 11.265625 -14.746094 11.265625 -13.390625 C 11.265625 -11.9375 10.65625 -10.9375 8.640625 -10.9375 L 5.285156 -10.9375 Z M 5.285156 -8.214844 L 8.691406 -8.214844 C 10.863281 -8.214844 11.59375 -7.140625 11.59375 -5.6875 C 11.59375 -4.308594 11.09375 -3.039062 8.53125 -3.039062 L 5.285156 -3.039062 Z M 5.285156 -8.214844 "/></g></g></g><g fill="rgb(100%, 100%, 100%)" fill-opacity="1"><g transform="translate(69.971272, 258.949977)"><g><path d="M 10.984375 0.4375 C 16.699219 0.4375 20.921875 -3.515625 20.921875 -9.375 C 20.921875 -15.21875 16.699219 -19.1875 10.984375 -19.1875 C 5.285156 -19.1875 1.074219 -15.21875 1.074219 -9.375 C 1.074219 -3.515625 5.285156 0.4375 10.984375 0.4375 Z M 10.984375 -2.746094 C 7.3125 -2.746094 4.515625 -5.394531 4.515625 -9.375 C 4.515625 -13.367188 7.300781 -16 10.984375 -16 C 14.671875 -16 17.492188 -13.367188 17.492188 -9.375 C 17.492188 -5.382812 14.671875 -2.746094 10.984375 -2.746094 Z M 10.984375 -2.746094 "/></g></g></g><g fill="rgb(100%, 100%, 100%)" fill-opacity="1"><g transform="translate(101.939305, 258.949977)"><g><path d="M 10.984375 0.4375 C 16.699219 0.4375 20.921875 -3.515625 20.921875 -9.375 C 20.921875 -15.21875 16.699219 -19.1875 10.984375 -19.1875 C 5.285156 -19.1875 1.074219 -15.21875 1.074219 -9.375 C 1.074219 -3.515625 5.285156 0.4375 10.984375 0.4375 Z M 10.984375 -2.746094 C 7.3125 -2.746094 4.515625 -5.394531 4.515625 -9.375 C 4.515625 -13.367188 7.300781 -16 10.984375 -16 C 14.671875 -16 17.492188 -13.367188 17.492188 -9.375 C 17.492188 -5.382812 14.671875 -2.746094 10.984375 -2.746094 Z M 10.984375 -2.746094 "/></g></g></g><g fill="rgb(100%, 100%, 100%)" fill-opacity="1"><g transform="translate(133.907337, 258.949977)"><g><path d="M 7.324219 0.4375 C 10.605469 0.4375 13.695312 -1.097656 13.695312 -4.808594 C 13.695312 -8.105469 11.082031 -9.558594 8.726562 -10.789062 C 6.589844 -11.875 4.785156 -12.707031 4.785156 -14.34375 C 4.785156 -15.671875 5.957031 -16.183594 7.410156 -16.183594 C 8.605469 -16.183594 10.007812 -15.855469 11.316406 -15.304688 C 11.609375 -15.183594 11.839844 -15.292969 11.960938 -15.585938 L 12.609375 -17.527344 C 12.730469 -17.820312 12.644531 -18.050781 12.339844 -18.175781 C 10.65625 -18.808594 8.824219 -19.1875 7.347656 -19.1875 C 4.199219 -19.1875 1.316406 -17.699219 1.316406 -14.097656 C 1.316406 -11.09375 3.464844 -9.667969 5.738281 -8.421875 C 8.042969 -7.175781 10.214844 -6.296875 10.214844 -4.636719 C 10.214844 -3.257812 9.03125 -2.550781 7.238281 -2.550781 C 5.957031 -2.550781 4.34375 -2.855469 2.539062 -3.699219 C 2.234375 -3.832031 2 -3.757812 1.878906 -3.464844 L 1.121094 -1.441406 C 1 -1.136719 1.085938 -0.914062 1.402344 -0.769531 C 3.710938 0.132812 5.527344 0.4375 7.324219 0.4375 Z M 7.324219 0.4375 "/></g></g></g><g fill="rgb(100%, 100%, 100%)" fill-opacity="1"><g transform="translate(158.540096, 258.949977)"><g><path d="M 7.886719 0 C 8.214844 0 8.386719 -0.171875 8.386719 -0.5 L 8.386719 -15.707031 L 12.449219 -15.707031 C 12.78125 -15.707031 12.949219 -15.890625 12.949219 -16.210938 L 12.949219 -18.246094 C 12.949219 -18.578125 12.78125 -18.75 12.449219 -18.75 L 0.878906 -18.75 C 0.550781 -18.75 0.378906 -18.578125 0.378906 -18.246094 L 0.378906 -16.210938 C 0.378906 -15.890625 0.550781 -15.707031 0.878906 -15.707031 L 4.929688 -15.707031 L 4.929688 -0.5 C 4.929688 -0.171875 5.113281 0 5.429688 0 Z M 7.886719 0 "/></g></g></g><g fill="rgb(100%, 100%, 100%)" fill-opacity="1"><g transform="translate(181.830286, 258.949977)"><g><path d="M 12.460938 0 C 12.792969 0 12.960938 -0.171875 12.960938 -0.5 L 12.960938 -2.539062 C 12.960938 -2.855469 12.792969 -3.039062 12.460938 -3.039062 L 5.285156 -3.039062 L 5.285156 -6.175781 L 11.484375 -6.175781 C 11.816406 -6.175781 11.984375 -6.347656 11.984375 -6.675781 L 11.984375 -8.582031 C 11.984375 -8.910156 11.816406 -9.082031 11.484375 -9.082031 L 5.285156 -9.082031 L 5.285156 -15.707031 L 12.460938 -15.707031 C 12.792969 -15.707031 12.960938 -15.890625 12.960938 -16.210938 L 12.960938 -18.246094 C 12.960938 -18.578125 12.792969 -18.75 12.460938 -18.75 L 2.355469 -18.75 C 2.027344 -18.75 1.855469 -18.578125 1.855469 -18.246094 L 1.855469 -0.5 C 1.855469 -0.171875 2.027344 0 2.355469 0 Z M 12.460938 0 "/></g></g></g><g fill="rgb(100%, 100%, 100%)" fill-opacity="1"><g transform="translate(205.901605, 258.949977)"><g><path d="M 7.347656 0 C 13.792969 0 17.285156 -3.527344 17.285156 -9.386719 C 17.285156 -15.304688 13.742188 -18.75 7.347656 -18.75 L 2.355469 -18.75 C 2.027344 -18.75 1.855469 -18.578125 1.855469 -18.246094 L 1.855469 -0.5 C 1.855469 -0.171875 2.027344 0 2.355469 0 Z M 5.308594 -15.707031 L 7.335938 -15.707031 C 11.484375 -15.707031 13.855469 -13.488281 13.855469 -9.421875 C 13.855469 -5.359375 11.484375 -3.039062 7.335938 -3.039062 L 5.308594 -3.039062 Z M 5.308594 -15.707031 "/></g></g></g><g fill="rgb(100%, 100%, 100%)" fill-opacity="1"><g transform="translate(234.256926, 258.949977)"><g/></g></g><g fill="rgb(100%, 100%, 100%)" fill-opacity="1"><g transform="translate(251.700856, 258.949977)"><g><path d="M 18.601562 -2.699219 C 20.128906 -4.382812 21.019531 -6.675781 21.019531 -9.375 C 21.019531 -15.21875 16.796875 -19.1875 11.082031 -19.1875 C 5.382812 -19.1875 1.171875 -15.21875 1.171875 -9.375 C 1.171875 -3.515625 5.382812 0.4375 11.082031 0.4375 C 13.058594 0.4375 14.855469 -0.0351562 16.367188 -0.890625 L 17.734375 0.609375 C 17.941406 0.855469 18.199219 0.867188 18.429688 0.621094 L 19.847656 -0.597656 C 20.089844 -0.84375 20.089844 -1.0625 19.871094 -1.292969 Z M 11.082031 -2.746094 C 7.410156 -2.746094 4.613281 -5.394531 4.613281 -9.375 C 4.613281 -13.367188 7.398438 -16 11.082031 -16 C 14.769531 -16 17.589844 -13.367188 17.589844 -9.375 C 17.589844 -7.738281 17.113281 -6.324219 16.292969 -5.222656 L 13.902344 -7.859375 C 13.683594 -8.105469 13.4375 -8.117188 13.195312 -7.886719 L 11.789062 -6.664062 C 11.546875 -6.433594 11.546875 -6.199219 11.765625 -5.957031 L 14.085938 -3.40625 C 13.195312 -2.976562 12.179688 -2.746094 11.082031 -2.746094 Z M 11.082031 -2.746094 "/></g></g></g><g fill="rgb(100%, 100%, 100%)" fill-opacity="1"><g transform="translate(283.888576, 258.949977)"><g><path d="M 15.414062 -4.320312 L 17.980469 -7.066406 C 18.199219 -7.300781 18.210938 -7.53125 17.992188 -7.761719 L 16.636719 -9.128906 C 16.417969 -9.351562 16.160156 -9.398438 15.941406 -9.140625 L 13.304688 -6.335938 L 7.175781 -12.195312 C 6.1875 -13.15625 5.933594 -13.742188 5.933594 -14.453125 C 5.933594 -15.683594 6.773438 -16.527344 7.984375 -16.527344 C 9.140625 -16.527344 10.019531 -15.757812 10.019531 -14.597656 C 10.019531 -14.171875 9.875 -13.707031 9.617188 -13.292969 C 9.484375 -13.023438 9.507812 -12.78125 9.714844 -12.570312 L 11.046875 -11.230469 C 11.277344 -10.996094 11.558594 -10.984375 11.765625 -11.277344 C 12.523438 -12.390625 12.863281 -13.523438 12.863281 -14.746094 C 12.863281 -17.199219 10.765625 -19.1875 8.042969 -19.1875 C 5.015625 -19.1875 3.003906 -17.101562 3.003906 -14.292969 C 3.003906 -13.046875 3.613281 -11.851562 4.164062 -11.242188 L 3.332031 -10.460938 C 2.0625 -9.324219 1.402344 -7.664062 1.402344 -5.894531 C 1.402344 -2.503906 4.199219 0.4375 7.921875 0.4375 C 9.703125 0.4375 11.277344 -0.292969 12.78125 -1.625 L 13.414062 -2.222656 L 15.917969 0.171875 C 16.148438 0.402344 16.390625 0.390625 16.625 0.160156 L 17.941406 -1.195312 C 18.175781 -1.429688 18.175781 -1.695312 17.929688 -1.917969 Z M 10.753906 -3.660156 C 9.789062 -2.710938 8.863281 -2.367188 7.945312 -2.367188 C 5.917969 -2.367188 4.285156 -3.980469 4.285156 -5.871094 C 4.285156 -6.824219 4.625 -7.691406 5.347656 -8.359375 L 6.175781 -9.15625 L 11.316406 -4.234375 Z M 10.753906 -3.660156 "/></g></g></g><g fill="rgb(100%, 100%, 100%)" fill-opacity="1"><g transform="translate(313.159287, 258.949977)"><g><path d="M 9.582031 -18.75 C 9.300781 -19.382812 8.777344 -19.382812 8.484375 -18.75 L 0.402344 -0.585938 C 0.242188 -0.230469 0.402344 0 0.769531 0 L 3.464844 0 C 3.734375 0 3.941406 -0.121094 4.039062 -0.390625 L 5.101562 -3.027344 L 12.976562 -3.027344 L 14.035156 -0.390625 C 14.132812 -0.121094 14.34375 0 14.609375 0 L 17.296875 0 C 17.675781 0 17.820312 -0.230469 17.675781 -0.585938 Z M 9.042969 -12.78125 L 11.863281 -5.773438 L 6.210938 -5.773438 Z M 9.042969 -12.78125 "/></g></g></g></svg>