<svg xmlns="http://www.w3.org/2000/svg" xmlns:xlink="http://www.w3.org/1999/xlink" width="256" zoomAndPan="magnify" viewBox="0 0 192 191.999996" height="256" preserveAspectRatio="xMidYMid meet" version="1.0"><defs><g/></defs><rect x="-19.2" width="230.4" fill="rgb(100%, 100%, 100%)" y="-19.2" height="230.399995" fill-opacity="1"/><rect x="-19.2" width="230.4" fill="rgb(100%, 100%, 100%)" y="-19.2" height="230.399995" fill-opacity="1"/><rect x="-19.2" width="230.4" fill="rgb(9.799194%, 52.938843%, 32.939148%)" y="-19.2" height="230.399995" fill-opacity="1"/><g fill="rgb(100%, 100%, 100%)" fill-opacity="1"><g transform="translate(28.152, 104.49454)"><g><path d="M 26.730469 0 C 27.539062 0 27.960938 -0.421875 27.960938 -1.230469 L 27.960938 -6.238281 C 27.960938 -7.019531 27.539062 -7.46875 26.730469 -7.46875 L 12.988281 -7.46875 L 12.988281 -44.851562 C 12.988281 -45.660156 12.570312 -46.078125 11.761719 -46.078125 L 5.789062 -46.078125 C 4.980469 -46.078125 4.558594 -45.660156 4.558594 -44.851562 L 4.558594 -1.230469 C 4.558594 -0.421875 4.980469 0 5.789062 0 Z M 26.730469 0 "/></g></g><g transform="translate(57.101999, 104.49454)"><g><path d="M 17.578125 0.691406 C 25.710938 0.691406 31.558594 -4.199219 31.558594 -12.871094 L 31.558594 -30.539062 C 31.558594 -31.320312 31.109375 -31.769531 30.328125 -31.769531 L 25.050781 -31.769531 C 24.238281 -31.769531 23.820312 -31.320312 23.820312 -30.539062 L 23.820312 -13.109375 C 23.820312 -9 21.511719 -6.390625 17.578125 -6.390625 C 13.769531 -6.390625 11.371094 -8.820312 11.371094 -13.109375 L 11.371094 -30.539062 C 11.371094 -31.320312 10.949219 -31.769531 10.140625 -31.769531 L 4.859375 -31.769531 C 4.050781 -31.769531 3.628906 -31.320312 3.628906 -30.539062 L 3.628906 -12.871094 C 3.628906 -4.199219 9.421875 0.691406 17.578125 0.691406 Z M 17.578125 0.691406 "/></g></g><g transform="translate(92.321997, 104.49454)"><g><path d="M 40.230469 -32.429688 C 36.210938 -32.429688 32.011719 -30.660156 29.398438 -27.421875 C 27.570312 -30.570312 24.179688 -32.429688 20.398438 -32.429688 C 17.191406 -32.429688 13.828125 -31.289062 10.679688 -28.140625 L 10.019531 -30.691406 C 9.839844 -31.441406 9.359375 -31.769531 8.671875 -31.769531 L 5.339844 -31.769531 C 4.558594 -31.769531 4.109375 -31.320312 4.109375 -30.539062 L 4.109375 -1.230469 C 4.109375 -0.421875 4.558594 0 5.339844 0 L 10.621094 0 C 11.429688 0 11.851562 -0.421875 11.851562 -1.230469 L 11.851562 -18.988281 C 11.851562 -22.859375 14.398438 -25.648438 18.269531 -25.648438 C 22.230469 -25.648438 24.089844 -22.738281 24.089844 -18.871094 L 24.089844 -1.230469 C 24.089844 -0.421875 24.511719 0 25.320312 0 L 30.601562 0 C 31.410156 0 31.828125 -0.421875 31.828125 -1.230469 L 31.828125 -18.988281 C 31.828125 -22.859375 34.441406 -25.648438 38.25 -25.648438 C 42.058594 -25.648438 43.980469 -22.738281 43.980469 -18.871094 L 43.980469 -1.230469 C 43.980469 -0.421875 44.429688 0 45.210938 0 L 50.488281 0 C 51.300781 0 51.71875 -0.421875 51.71875 -1.230469 L 51.71875 -20.160156 C 51.71875 -27.058594 47.339844 -32.429688 40.230469 -32.429688 Z M 40.230469 -32.429688 "/></g></g><g transform="translate(147.821994, 104.49454)"><g><path d="M 7.949219 -34.828125 C 10.648438 -34.828125 12.660156 -36.871094 12.660156 -39.570312 C 12.660156 -42.238281 10.648438 -44.339844 7.949219 -44.339844 C 5.25 -44.339844 3.210938 -42.238281 3.210938 -39.570312 C 3.210938 -36.871094 5.25 -34.828125 7.949219 -34.828125 Z M 10.621094 0 C 11.429688 0 11.851562 -0.421875 11.851562 -1.230469 L 11.851562 -30.539062 C 11.851562 -31.320312 11.429688 -31.769531 10.621094 -31.769531 L 5.339844 -31.769531 C 4.558594 -31.769531 4.109375 -31.320312 4.109375 -30.539062 L 4.109375 -1.230469 C 4.109375 -0.421875 4.558594 0 5.339844 0 Z M 10.621094 0 "/></g></g></g><g fill="rgb(100%, 100%, 100%)" fill-opacity="1"><g transform="translate(63.415516, 138.158536)"><g><path d="M 15.238281 -2.210938 C 16.488281 -3.589844 17.21875 -5.46875 17.21875 -7.679688 C 17.21875 -12.46875 13.757812 -15.71875 9.078125 -15.71875 C 4.410156 -15.71875 0.960938 -12.46875 0.960938 -7.679688 C 0.960938 -2.878906 4.410156 0.359375 9.078125 0.359375 C 10.699219 0.359375 12.167969 -0.03125 13.410156 -0.730469 L 14.527344 0.5 C 14.699219 0.699219 14.910156 0.710938 15.097656 0.511719 L 16.257812 -0.488281 C 16.457031 -0.691406 16.457031 -0.871094 16.277344 -1.058594 Z M 9.078125 -2.25 C 6.070312 -2.25 3.78125 -4.417969 3.78125 -7.679688 C 3.78125 -10.949219 6.058594 -13.109375 9.078125 -13.109375 C 12.097656 -13.109375 14.410156 -10.949219 14.410156 -7.679688 C 14.410156 -6.339844 14.019531 -5.179688 13.347656 -4.28125 L 11.390625 -6.441406 C 11.210938 -6.640625 11.007812 -6.648438 10.808594 -6.460938 L 9.660156 -5.460938 C 9.460938 -5.269531 9.460938 -5.078125 9.640625 -4.878906 L 11.539062 -2.789062 C 10.808594 -2.441406 9.980469 -2.25 9.078125 -2.25 Z M 9.078125 -2.25 "/></g></g></g><g fill="rgb(100%, 100%, 100%)" fill-opacity="1"><g transform="translate(89.784771, 138.158536)"><g><path d="M 12.628906 -3.539062 L 14.730469 -5.789062 C 14.910156 -5.980469 14.917969 -6.167969 14.738281 -6.359375 L 13.628906 -7.480469 C 13.449219 -7.660156 13.238281 -7.699219 13.058594 -7.488281 L 10.898438 -5.191406 L 5.878906 -9.988281 C 5.070312 -10.78125 4.859375 -11.257812 4.859375 -11.839844 C 4.859375 -12.847656 5.550781 -13.539062 6.539062 -13.539062 C 7.488281 -13.539062 8.210938 -12.910156 8.210938 -11.960938 C 8.210938 -11.609375 8.089844 -11.230469 7.878906 -10.890625 C 7.769531 -10.667969 7.789062 -10.46875 7.960938 -10.300781 L 9.050781 -9.199219 C 9.238281 -9.007812 9.46875 -9 9.640625 -9.238281 C 10.257812 -10.148438 10.539062 -11.078125 10.539062 -12.078125 C 10.539062 -14.089844 8.820312 -15.71875 6.589844 -15.71875 C 4.109375 -15.71875 2.460938 -14.007812 2.460938 -11.710938 C 2.460938 -10.6875 2.960938 -9.710938 3.410156 -9.210938 L 2.730469 -8.570312 C 1.691406 -7.640625 1.148438 -6.28125 1.148438 -4.828125 C 1.148438 -2.050781 3.441406 0.359375 6.488281 0.359375 C 7.949219 0.359375 9.238281 -0.238281 10.46875 -1.328125 L 10.988281 -1.820312 L 13.039062 0.140625 C 13.230469 0.328125 13.429688 0.320312 13.621094 0.128906 L 14.699219 -0.980469 C 14.890625 -1.171875 14.890625 -1.390625 14.6875 -1.570312 Z M 8.808594 -3 C 8.019531 -2.21875 7.257812 -1.941406 6.507812 -1.941406 C 4.851562 -1.941406 3.511719 -3.261719 3.511719 -4.808594 C 3.511719 -5.589844 3.789062 -6.300781 4.378906 -6.847656 L 5.058594 -7.5 L 9.269531 -3.46875 Z M 8.808594 -3 "/></g></g></g><g fill="rgb(100%, 100%, 100%)" fill-opacity="1"><g transform="translate(113.764261, 138.158536)"><g><path d="M 7.847656 -15.359375 C 7.621094 -15.878906 7.191406 -15.878906 6.949219 -15.359375 L 0.328125 -0.480469 C 0.199219 -0.191406 0.328125 0 0.628906 0 L 2.839844 0 C 3.058594 0 3.230469 -0.101562 3.308594 -0.320312 L 4.179688 -2.480469 L 10.628906 -2.480469 L 11.5 -0.320312 C 11.578125 -0.101562 11.75 0 11.96875 0 L 14.167969 0 C 14.480469 0 14.597656 -0.191406 14.480469 -0.480469 Z M 7.410156 -10.46875 L 9.71875 -4.730469 L 5.089844 -4.730469 Z M 7.410156 -10.46875 "/></g></g></g></svg>